<?xml version="1.0" encoding="UTF-8" standalone="yes"?>
<svg xmlns="http://www.w3.org/2000/svg" xmlns:xlink="http://www.w3.org/1999/xlink" height="1725px" style="width:1441px;height:1725px;" version="1.1" viewBox="0 0 1441 1725" width="1441px"><defs><filter height="300%" id="f1" width="300%" x="-1" y="-1"><feGaussianBlur result="blurOut" stdDeviation="2.0"/><feColorMatrix in="blurOut" result="blurOut2" type="matrix" values="0 0 0 0 0 0 0 0 0 0 0 0 0 0 0 0 0 0 .4 0"/><feOffset dx="4.0" dy="4.0" in="blurOut2" result="blurOut3"/><feBlend in="SourceGraphic" in2="blurOut3" mode="normal"/></filter></defs><g><polygon fill="#DDDDDD" filter="url(#f1)" points="22,24,143,24,150,46.2969,1197,46.2969,1197,1718,22,1718,22,24" style="stroke: #000000; stroke-width: 2.0;"/><line style="stroke: #000000; stroke-width: 2.0;" x1="22" x2="150" y1="46.2969" y2="46.2969"/><text fill="#000000" font-family="sans-serif" font-size="14" font-weight="bold" lengthAdjust="spacingAndGlyphs" textLength="115" x="25" y="39.9951">GraphDraw_ns</text><rect fill="#FEFECE" filter="url(#f1)" height="48" style="stroke: #A80036; stroke-width: 1.5;" width="141" x="1021.75" y="60"/><ellipse cx="1036.75" cy="76" fill="#ADD1B2" rx="11" ry="11" style="stroke: #A80036; stroke-width: 1.0;"/><path d="M1039.0938,71.6719 L1039.2656,71.75 C1039.4844,71.4375 1039.6875,71.3438 1039.9844,71.3438 C1040.2813,71.3438 1040.5625,71.4844 1040.7188,71.75 C1040.8125,71.9063 1040.8281,72.0313 1040.8281,72.4688 L1040.8281,73.8906 C1040.8281,74.3125 1040.7969,74.5 1040.6875,74.6563 C1040.5156,74.875 1040.25,75.0156 1039.9844,75.0156 C1039.7656,75.0156 1039.5313,74.9063 1039.3906,74.7656 C1039.25,74.6406 1039.2188,74.5156 1039.1563,74.1094 C1039.0625,73.7031 1038.8906,73.4844 1038.4063,73.2031 C1037.9375,72.9531 1037.3281,72.7969 1036.75,72.7969 C1035.0156,72.7969 1033.7656,74.1094 1033.7656,75.8906 L1033.7656,76.9844 C1033.7656,78.6875 1035.0625,79.7813 1037.1094,79.7813 C1037.875,79.7813 1038.5625,79.6563 1038.9844,79.3906 C1039.1719,79.2969 1039.1719,79.2969 1039.625,78.8125 C1039.8125,78.625 1040.0156,78.5469 1040.2344,78.5469 C1040.7031,78.5469 1041.0938,78.9375 1041.0938,79.3906 C1041.0938,79.7813 1040.7656,80.2344 1040.1875,80.6406 C1039.4375,81.1875 1038.2813,81.4844 1037.0625,81.4844 C1034.1719,81.4844 1032.0625,79.5938 1032.0625,77.0156 L1032.0625,75.8906 C1032.0625,73.1719 1034.0625,71.0938 1036.6875,71.0938 C1037.5625,71.0938 1038.1563,71.2344 1039.0938,71.6719 Z "/><text fill="#000000" font-family="sans-serif" font-size="12" lengthAdjust="spacingAndGlyphs" textLength="109" x="1050.75" y="80.1543">SeriesConfigBase</text><line style="stroke: #A80036; stroke-width: 1.5;" x1="1022.75" x2="1161.75" y1="92" y2="92"/><line style="stroke: #A80036; stroke-width: 1.5;" x1="1022.75" x2="1161.75" y1="100" y2="100"/><rect fill="#FEFECE" filter="url(#f1)" height="48" style="stroke: #A80036; stroke-width: 1.5;" width="110" x="1037" y="170"/><ellipse cx="1052" cy="186" fill="#ADD1B2" rx="11" ry="11" style="stroke: #A80036; stroke-width: 1.0;"/><path d="M1054.3438,181.6719 L1054.5156,181.75 C1054.7344,181.4375 1054.9375,181.3438 1055.2344,181.3438 C1055.5313,181.3438 1055.8125,181.4844 1055.9688,181.75 C1056.0625,181.9063 1056.0781,182.0313 1056.0781,182.4688 L1056.0781,183.8906 C1056.0781,184.3125 1056.0469,184.5 1055.9375,184.6563 C1055.7656,184.875 1055.5,185.0156 1055.2344,185.0156 C1055.0156,185.0156 1054.7813,184.9063 1054.6406,184.7656 C1054.5,184.6406 1054.4688,184.5156 1054.4063,184.1094 C1054.3125,183.7031 1054.1406,183.4844 1053.6563,183.2031 C1053.1875,182.9531 1052.5781,182.7969 1052,182.7969 C1050.2656,182.7969 1049.0156,184.1094 1049.0156,185.8906 L1049.0156,186.9844 C1049.0156,188.6875 1050.3125,189.7813 1052.3594,189.7813 C1053.125,189.7813 1053.8125,189.6563 1054.2344,189.3906 C1054.4219,189.2969 1054.4219,189.2969 1054.875,188.8125 C1055.0625,188.625 1055.2656,188.5469 1055.4844,188.5469 C1055.9531,188.5469 1056.3438,188.9375 1056.3438,189.3906 C1056.3438,189.7813 1056.0156,190.2344 1055.4375,190.6406 C1054.6875,191.1875 1053.5313,191.4844 1052.3125,191.4844 C1049.4219,191.4844 1047.3125,189.5938 1047.3125,187.0156 L1047.3125,185.8906 C1047.3125,183.1719 1049.3125,181.0938 1051.9375,181.0938 C1052.8125,181.0938 1053.4063,181.2344 1054.3438,181.6719 Z "/><text fill="#000000" font-family="sans-serif" font-size="12" lengthAdjust="spacingAndGlyphs" textLength="78" x="1066" y="190.1543">SeriesConfig</text><line style="stroke: #A80036; stroke-width: 1.5;" x1="1038" x2="1146" y1="202" y2="202"/><line style="stroke: #A80036; stroke-width: 1.5;" x1="1038" x2="1146" y1="210" y2="210"/><rect fill="#9ACD32" filter="url(#f1)" height="117.9609" style="stroke: #A80036; stroke-width: 1.5;" width="177" x="1003.75" y="296"/><ellipse cx="1049.5" cy="314.9688" fill="#ADD1B2" rx="11" ry="11" style="stroke: #A80036; stroke-width: 1.0;"/><path d="M1051.8438,310.6406 L1052.0156,310.7188 C1052.2344,310.4063 1052.4375,310.3125 1052.7344,310.3125 C1053.0313,310.3125 1053.3125,310.4531 1053.4688,310.7188 C1053.5625,310.875 1053.5781,311 1053.5781,311.4375 L1053.5781,312.8594 C1053.5781,313.2813 1053.5469,313.4688 1053.4375,313.625 C1053.2656,313.8438 1053,313.9844 1052.7344,313.9844 C1052.5156,313.9844 1052.2813,313.875 1052.1406,313.7344 C1052,313.6094 1051.9688,313.4844 1051.9063,313.0781 C1051.8125,312.6719 1051.6406,312.4531 1051.1563,312.1719 C1050.6875,311.9219 1050.0781,311.7656 1049.5,311.7656 C1047.7656,311.7656 1046.5156,313.0781 1046.5156,314.8594 L1046.5156,315.9531 C1046.5156,317.6563 1047.8125,318.75 1049.8594,318.75 C1050.625,318.75 1051.3125,318.625 1051.7344,318.3594 C1051.9219,318.2656 1051.9219,318.2656 1052.375,317.7813 C1052.5625,317.5938 1052.7656,317.5156 1052.9844,317.5156 C1053.4531,317.5156 1053.8438,317.9063 1053.8438,318.3594 C1053.8438,318.75 1053.5156,319.2031 1052.9375,319.6094 C1052.1875,320.1563 1051.0313,320.4531 1049.8125,320.4531 C1046.9219,320.4531 1044.8125,318.5625 1044.8125,315.9844 L1044.8125,314.8594 C1044.8125,312.1406 1046.8125,310.0625 1049.4375,310.0625 C1050.3125,310.0625 1050.9063,310.2031 1051.8438,310.6406 Z "/><text fill="#000000" font-family="sans-serif" font-size="12" font-style="italic" lengthAdjust="spacingAndGlyphs" textLength="44" x="1086.5" y="312.1387">«CRTP»</text><text fill="#000000" font-family="sans-serif" font-size="12" lengthAdjust="spacingAndGlyphs" textLength="77" x="1070" y="326.1074">SeriesGroup</text><line style="stroke: #A80036; stroke-width: 1.5;" x1="1004.75" x2="1179.75" y1="333.9375" y2="333.9375"/><ellipse cx="1014.75" cy="345.8398" fill="#84BE84" rx="3" ry="3" style="stroke: #038048; stroke-width: 1.0;"/><text fill="#000000" font-family="sans-serif" font-size="11" lengthAdjust="spacingAndGlyphs" textLength="127" x="1023.75" y="348.1479">DERIVED&amp; AddSeries()</text><ellipse cx="1014.75" cy="358.6445" fill="#84BE84" rx="3" ry="3" style="stroke: #038048; stroke-width: 1.0;"/><text fill="#000000" font-family="sans-serif" font-size="11" lengthAdjust="spacingAndGlyphs" textLength="135" x="1023.75" y="360.9526">DERIVED&amp; InserSeries()</text><ellipse cx="1014.75" cy="371.4492" fill="#84BE84" rx="3" ry="3" style="stroke: #038048; stroke-width: 1.0;"/><text fill="#000000" font-family="sans-serif" font-size="11" lengthAdjust="spacingAndGlyphs" textLength="151" x="1023.75" y="373.7573">DERIVED&amp; RemoveSeries()</text><line style="stroke: #A80036; stroke-width: 1.0; stroke-dasharray: 1.0,2.0;" x1="1004.75" x2="1179.75" y1="380.3516" y2="380.3516"/><ellipse cx="1014.75" cy="392.2539" fill="#84BE84" rx="3" ry="3" style="stroke: #038048; stroke-width: 1.0;"/><text fill="#000000" font-family="sans-serif" font-size="11" lengthAdjust="spacingAndGlyphs" textLength="124" x="1023.75" y="394.562">DERIVED&amp; MarkStyle()</text><ellipse cx="1014.75" cy="405.0586" fill="#84BE84" rx="3" ry="3" style="stroke: #038048; stroke-width: 1.0;"/><text fill="#000000" font-family="sans-serif" font-size="11" lengthAdjust="spacingAndGlyphs" textLength="118" x="1023.75" y="407.3667">DERIVED&amp; PlotStyle()</text><rect fill="#FEFECE" filter="url(#f1)" height="112.0234" style="stroke: #A80036; stroke-width: 1.5;" width="279" x="212.75" y="299"/><ellipse cx="283" cy="315" fill="#B4A7E5" rx="11" ry="11" style="stroke: #A80036; stroke-width: 1.0;"/><path d="M283.9531,311.7813 L283.9531,318.2969 L285.6719,318.2969 C286.125,318.2969 286.2656,318.3281 286.4375,318.4531 C286.6719,318.625 286.7813,318.875 286.7813,319.1563 C286.7813,319.7188 286.4219,320 285.6719,320 L280.5313,320 C280.125,320 279.9219,319.9531 279.7656,319.8281 C279.5469,319.6719 279.4063,319.4063 279.4063,319.1563 C279.4063,318.8594 279.5625,318.5781 279.8125,318.4219 C279.9688,318.3125 280.0938,318.2969 280.5313,318.2969 L282.25,318.2969 L282.25,311.7813 L280.5313,311.7813 C280.1094,311.7813 279.9219,311.75 279.7656,311.6406 C279.5469,311.4688 279.4063,311.2188 279.4063,310.9375 C279.4063,310.6563 279.5625,310.3594 279.8125,310.2031 C279.9688,310.1094 280.0938,310.0938 280.5313,310.0938 L285.6719,310.0938 C286.125,310.0938 286.2656,310.125 286.4375,310.2344 C286.6719,310.4063 286.7813,310.6719 286.7813,310.9375 C286.7813,311.2344 286.6406,311.5156 286.375,311.6719 C286.25,311.75 286.0625,311.7813 285.6719,311.7813 Z "/><text fill="#000000" font-family="sans-serif" font-size="12" font-style="italic" lengthAdjust="spacingAndGlyphs" textLength="130" x="303.5" y="319.1543">GraphElementParent</text><line style="stroke: #A80036; stroke-width: 1.5;" x1="213.75" x2="490.75" y1="331" y2="331"/><line style="stroke: #A80036; stroke-width: 1.5;" x1="213.75" x2="490.75" y1="339" y2="339"/><ellipse cx="223.75" cy="350.9023" fill="#84BE84" rx="3" ry="3" style="stroke: #038048; stroke-width: 1.0;"/><text fill="#000000" font-family="sans-serif" font-size="11" font-style="italic" lengthAdjust="spacingAndGlyphs" textLength="140" x="232.75" y="353.2104">void ScrollX(xOffset)=0 ;</text><ellipse cx="223.75" cy="363.707" fill="#84BE84" rx="3" ry="3" style="stroke: #038048; stroke-width: 1.0;"/><text fill="#000000" font-family="sans-serif" font-size="11" font-style="italic" lengthAdjust="spacingAndGlyphs" textLength="139" x="232.75" y="366.0151">void ScrollY(yOffset)=0 ;</text><ellipse cx="223.75" cy="376.5117" fill="#84BE84" rx="3" ry="3" style="stroke: #038048; stroke-width: 1.0;"/><text fill="#000000" font-family="sans-serif" font-size="11" font-style="italic" lengthAdjust="spacingAndGlyphs" textLength="153" x="232.75" y="378.8198">void ZoomX(left, right)=0 ;</text><ellipse cx="223.75" cy="389.3164" fill="#84BE84" rx="3" ry="3" style="stroke: #038048; stroke-width: 1.0;"/><text fill="#000000" font-family="sans-serif" font-size="11" font-style="italic" lengthAdjust="spacingAndGlyphs" textLength="166" x="232.75" y="391.6245">void ZoomY(top, bottom)=0 ;</text><ellipse cx="223.75" cy="402.1211" fill="#84BE84" rx="3" ry="3" style="stroke: #038048; stroke-width: 1.0;"/><text fill="#000000" font-family="sans-serif" font-size="11" font-style="italic" lengthAdjust="spacingAndGlyphs" textLength="253" x="232.75" y="404.4292">void RefreshFromChild(RefreshStrategy)=0 ;</text><rect fill="#9ACD32" filter="url(#f1)" height="292.4219" style="stroke: #A80036; stroke-width: 1.5;" width="301" x="375.75" y="492"/><ellipse cx="450" cy="510.9688" fill="#ADD1B2" rx="11" ry="11" style="stroke: #A80036; stroke-width: 1.0;"/><path d="M452.3438,506.6406 L452.5156,506.7188 C452.7344,506.4063 452.9375,506.3125 453.2344,506.3125 C453.5313,506.3125 453.8125,506.4531 453.9688,506.7188 C454.0625,506.875 454.0781,507 454.0781,507.4375 L454.0781,508.8594 C454.0781,509.2813 454.0469,509.4688 453.9375,509.625 C453.7656,509.8438 453.5,509.9844 453.2344,509.9844 C453.0156,509.9844 452.7813,509.875 452.6406,509.7344 C452.5,509.6094 452.4688,509.4844 452.4063,509.0781 C452.3125,508.6719 452.1406,508.4531 451.6563,508.1719 C451.1875,507.9219 450.5781,507.7656 450,507.7656 C448.2656,507.7656 447.0156,509.0781 447.0156,510.8594 L447.0156,511.9531 C447.0156,513.6563 448.3125,514.75 450.3594,514.75 C451.125,514.75 451.8125,514.625 452.2344,514.3594 C452.4219,514.2656 452.4219,514.2656 452.875,513.7813 C453.0625,513.5938 453.2656,513.5156 453.4844,513.5156 C453.9531,513.5156 454.3438,513.9063 454.3438,514.3594 C454.3438,514.75 454.0156,515.2031 453.4375,515.6094 C452.6875,516.1563 451.5313,516.4531 450.3125,516.4531 C447.4219,516.4531 445.3125,514.5625 445.3125,511.9844 L445.3125,510.8594 C445.3125,508.1406 447.3125,506.0625 449.9375,506.0625 C450.8125,506.0625 451.4063,506.2031 452.3438,506.6406 Z "/><text fill="#000000" font-family="sans-serif" font-size="12" font-style="italic" lengthAdjust="spacingAndGlyphs" textLength="44" x="520.5" y="508.1387">«CRTP»</text><text fill="#000000" font-family="sans-serif" font-size="12" lengthAdjust="spacingAndGlyphs" textLength="144" x="470.5" y="522.1074">CRTP_EmptyGraphDraw</text><line style="stroke: #A80036; stroke-width: 1.5;" x1="376.75" x2="675.75" y1="529.9375" y2="529.9375"/><polygon fill="#FFFF44" points="386.75,536.8398,390.75,540.8398,386.75,544.8398,382.75,540.8398" style="stroke: #B38D22; stroke-width: 1.0;"/><text fill="#000000" font-family="sans-serif" font-size="11" lengthAdjust="spacingAndGlyphs" textLength="134" x="395.75" y="544.1479">void updateSizes(scale)</text><ellipse cx="386.75" cy="554.6445" fill="#84BE84" rx="3" ry="3" style="stroke: #038048; stroke-width: 1.0;"/><text fill="#000000" font-family="sans-serif" font-size="11" lengthAdjust="spacingAndGlyphs" textLength="158" x="395.75" y="556.9526">DERIVED&amp; setScreenSize(..)</text><ellipse cx="386.75" cy="567.4492" fill="#84BE84" rx="3" ry="3" style="stroke: #038048; stroke-width: 1.0;"/><text fill="#000000" font-family="sans-serif" font-size="11" lengthAdjust="spacingAndGlyphs" textLength="231" x="395.75" y="569.7573">TypeCoordConverter&amp; AddXConverter(..)</text><ellipse cx="386.75" cy="580.2539" fill="#84BE84" rx="3" ry="3" style="stroke: #038048; stroke-width: 1.0;"/><text fill="#000000" font-family="sans-serif" font-size="11" lengthAdjust="spacingAndGlyphs" textLength="231" x="395.75" y="582.562">TypeCoordConverter&amp; AddYConverter(..)</text><ellipse cx="386.75" cy="593.0586" fill="#84BE84" rx="3" ry="3" style="stroke: #038048; stroke-width: 1.0;"/><text fill="#000000" font-family="sans-serif" font-size="11" lengthAdjust="spacingAndGlyphs" textLength="167" x="395.75" y="595.3667">DERIVED&amp; ZoomOnRect(Rect)</text><ellipse cx="386.75" cy="605.8633" fill="#84BE84" rx="3" ry="3" style="stroke: #038048; stroke-width: 1.0;"/><text fill="#000000" font-family="sans-serif" font-size="11" lengthAdjust="spacingAndGlyphs" textLength="168" x="395.75" y="608.1714">DERIVED&amp; ApplyZoomFactor()</text><ellipse cx="386.75" cy="618.668" fill="#84BE84" rx="3" ry="3" style="stroke: #038048; stroke-width: 1.0;"/><text fill="#000000" font-family="sans-serif" font-size="11" lengthAdjust="spacingAndGlyphs" textLength="109" x="395.75" y="620.9761">DERIVED&amp; Scroll(..)</text><ellipse cx="386.75" cy="648.2773" fill="#84BE84" rx="3" ry="3" style="stroke: #038048; stroke-width: 1.0;"/><text fill="#000000" font-family="sans-serif" font-size="11" lengthAdjust="spacingAndGlyphs" textLength="184" x="395.75" y="650.5854">virtual void ZoomX(xLeft, xRight)</text><ellipse cx="386.75" cy="661.082" fill="#84BE84" rx="3" ry="3" style="stroke: #038048; stroke-width: 1.0;"/><text fill="#000000" font-family="sans-serif" font-size="11" lengthAdjust="spacingAndGlyphs" textLength="197" x="395.75" y="663.3901">virtual void ZoomY(yTop, yBottom)</text><ellipse cx="386.75" cy="673.8867" fill="#84BE84" rx="3" ry="3" style="stroke: #038048; stroke-width: 1.0;"/><text fill="#000000" font-family="sans-serif" font-size="11" lengthAdjust="spacingAndGlyphs" textLength="121" x="395.75" y="676.1948">virtual void ScrollX(..)</text><ellipse cx="386.75" cy="686.6914" fill="#84BE84" rx="3" ry="3" style="stroke: #038048; stroke-width: 1.0;"/><text fill="#000000" font-family="sans-serif" font-size="11" lengthAdjust="spacingAndGlyphs" textLength="121" x="395.75" y="688.9995">virtual void ScrollY(..)</text><ellipse cx="386.75" cy="699.4961" fill="#84BE84" rx="3" ry="3" style="stroke: #038048; stroke-width: 1.0;"/><text fill="#000000" font-family="sans-serif" font-size="11" lengthAdjust="spacingAndGlyphs" textLength="275" x="395.75" y="701.8042">virtual void RefreshFromChild( RefreshStrategy )</text><line style="stroke: #A80036; stroke-width: 1.0; stroke-dasharray: 1.0,2.0;" x1="376.75" x2="440.25" y1="633.9727" y2="633.9727"/><text fill="#000000" font-family="sans-serif" font-size="11" lengthAdjust="spacingAndGlyphs" textLength="172" x="440.25" y="637.2808">GraphElementParent methods</text><line style="stroke: #A80036; stroke-width: 1.0; stroke-dasharray: 1.0,2.0;" x1="612.25" x2="675.75" y1="633.9727" y2="633.9727"/><ellipse cx="386.75" cy="729.1055" fill="#84BE84" rx="3" ry="3" style="stroke: #038048; stroke-width: 1.0;"/><text fill="#000000" font-family="sans-serif" font-size="11" lengthAdjust="spacingAndGlyphs" textLength="129" x="395.75" y="731.4136">T&amp; AddElement&lt;T&gt;(..)</text><ellipse cx="386.75" cy="741.9102" fill="#84BE84" rx="3" ry="3" style="stroke: #038048; stroke-width: 1.0;"/><text fill="#000000" font-family="sans-serif" font-size="11" lengthAdjust="spacingAndGlyphs" textLength="140" x="395.75" y="744.2183">T&amp; CloneElement&lt;T&gt;(..)</text><ellipse cx="386.75" cy="754.7148" fill="#84BE84" rx="3" ry="3" style="stroke: #038048; stroke-width: 1.0;"/><text fill="#000000" font-family="sans-serif" font-size="11" lengthAdjust="spacingAndGlyphs" textLength="146" x="395.75" y="757.0229">T&amp; CreateElement&lt;T&gt;(..)</text><ellipse cx="386.75" cy="767.5195" fill="#84BE84" rx="3" ry="3" style="stroke: #038048; stroke-width: 1.0;"/><text fill="#000000" font-family="sans-serif" font-size="11" lengthAdjust="spacingAndGlyphs" textLength="187" x="395.75" y="769.8276">T&amp; CreateLegendElement&lt;T&gt;(..)</text><line style="stroke: #A80036; stroke-width: 1.0; stroke-dasharray: 1.0,2.0;" x1="376.75" x2="460.25" y1="714.8008" y2="714.8008"/><text fill="#000000" font-family="sans-serif" font-size="11" lengthAdjust="spacingAndGlyphs" textLength="132" x="460.25" y="718.1089">Elements management</text><line style="stroke: #A80036; stroke-width: 1.0; stroke-dasharray: 1.0,2.0;" x1="592.25" x2="675.75" y1="714.8008" y2="714.8008"/><line style="stroke: #A80036; stroke-width: 1.0; stroke-dasharray: 1.0,2.0;" x1="376.75" x2="675.75" y1="776.4219" y2="776.4219"/><rect fill="#9ACD32" filter="url(#f1)" height="53.9375" style="stroke: #A80036; stroke-width: 1.5;" width="159" x="318.75" y="869"/><ellipse cx="333.75" cy="887.9688" fill="#ADD1B2" rx="11" ry="11" style="stroke: #A80036; stroke-width: 1.0;"/><path d="M336.0938,883.6406 L336.2656,883.7188 C336.4844,883.4063 336.6875,883.3125 336.9844,883.3125 C337.2813,883.3125 337.5625,883.4531 337.7188,883.7188 C337.8125,883.875 337.8281,884 337.8281,884.4375 L337.8281,885.8594 C337.8281,886.2813 337.7969,886.4688 337.6875,886.625 C337.5156,886.8438 337.25,886.9844 336.9844,886.9844 C336.7656,886.9844 336.5313,886.875 336.3906,886.7344 C336.25,886.6094 336.2188,886.4844 336.1563,886.0781 C336.0625,885.6719 335.8906,885.4531 335.4063,885.1719 C334.9375,884.9219 334.3281,884.7656 333.75,884.7656 C332.0156,884.7656 330.7656,886.0781 330.7656,887.8594 L330.7656,888.9531 C330.7656,890.6563 332.0625,891.75 334.1094,891.75 C334.875,891.75 335.5625,891.625 335.9844,891.3594 C336.1719,891.2656 336.1719,891.2656 336.625,890.7813 C336.8125,890.5938 337.0156,890.5156 337.2344,890.5156 C337.7031,890.5156 338.0938,890.9063 338.0938,891.3594 C338.0938,891.75 337.7656,892.2031 337.1875,892.6094 C336.4375,893.1563 335.2813,893.4531 334.0625,893.4531 C331.1719,893.4531 329.0625,891.5625 329.0625,888.9844 L329.0625,887.8594 C329.0625,885.1406 331.0625,883.0625 333.6875,883.0625 C334.5625,883.0625 335.1563,883.2031 336.0938,883.6406 Z "/><text fill="#000000" font-family="sans-serif" font-size="12" font-style="italic" lengthAdjust="spacingAndGlyphs" textLength="44" x="389.25" y="885.1387">«CRTP»</text><text fill="#000000" font-family="sans-serif" font-size="12" lengthAdjust="spacingAndGlyphs" textLength="127" x="347.75" y="899.1074">CRTP_StdGraphDraw</text><line style="stroke: #A80036; stroke-width: 1.5;" x1="319.75" x2="476.75" y1="906.9375" y2="906.9375"/><line style="stroke: #A80036; stroke-width: 1.5;" x1="319.75" x2="476.75" y1="914.9375" y2="914.9375"/><rect fill="#FEFECE" filter="url(#f1)" height="278.4844" style="stroke: #A80036; stroke-width: 1.5;" width="267" x="38.75" y="499"/><ellipse cx="104" cy="515" fill="#FFFF00" rx="11" ry="11" style="stroke: #A80036; stroke-width: 1.0;"/><path d="M105.5781,516.8125 L101.5313,516.8125 L101.1406,517.7969 L101.5313,517.7969 C101.9844,517.7969 102.125,517.8281 102.2969,517.9531 C102.5156,518.125 102.6406,518.375 102.6406,518.6563 C102.6406,518.9375 102.5,519.2344 102.2344,519.375 C102.1094,519.4688 101.8906,519.5 101.5313,519.5 L99.2656,519.5 C98.5156,519.5 98.1406,519.2188 98.1406,518.6563 C98.1406,518.3594 98.2969,518.0781 98.5469,517.9219 C98.7031,517.8125 98.8594,517.7969 99.2813,517.7969 L101.9219,511.2813 L100.8438,511.2813 C100.4063,511.2813 100.2344,511.25 100.0625,511.1406 C99.8438,510.9688 99.7031,510.7188 99.7031,510.4375 C99.7031,510.1563 99.8594,509.875 100.1094,509.7031 C100.2656,509.6094 100.3906,509.5938 100.8438,509.5938 L104.5156,509.5938 L107.9063,517.7969 C108.375,517.7969 108.5313,517.8281 108.7031,517.9688 C108.9219,518.125 109.0625,518.375 109.0625,518.6563 C109.0625,518.9375 108.9063,519.2344 108.6563,519.375 C108.5156,519.4688 108.2969,519.5 107.9375,519.5 L105.5781,519.5 C105.1563,519.5 104.9531,519.4531 104.8125,519.3281 C104.5938,519.1719 104.4531,518.9219 104.4531,518.6563 C104.4531,518.3594 104.6094,518.0781 104.8594,517.9219 C105.0156,517.8125 105.125,517.7969 105.5781,517.7969 L105.9688,517.7969 Z M104.875,515.1094 L103.5469,511.8438 L102.2031,515.1094 Z "/><text fill="#000000" font-family="sans-serif" font-size="12" font-style="italic" lengthAdjust="spacingAndGlyphs" textLength="128" x="124.5" y="519.1543">GraphElementFrame</text><line style="stroke: #A80036; stroke-width: 1.5;" x1="39.75" x2="304.75" y1="531" y2="531"/><line style="stroke: #A80036; stroke-width: 1.5;" x1="39.75" x2="304.75" y1="539" y2="539"/><ellipse cx="49.75" cy="550.9023" fill="#84BE84" rx="3" ry="3" style="stroke: #038048; stroke-width: 1.0;"/><text fill="#000000" font-family="sans-serif" font-size="11" lengthAdjust="spacingAndGlyphs" textLength="114" x="58.75" y="553.2104">virtual void Update()</text><ellipse cx="49.75" cy="563.707" fill="#84BE84" rx="3" ry="3" style="stroke: #038048; stroke-width: 1.0;"/><text fill="#000000" font-family="sans-serif" font-size="11" font-style="italic" lengthAdjust="spacingAndGlyphs" textLength="231" x="58.75" y="566.0151">virtual GraphElementFrame* Clone() = 0</text><ellipse cx="49.75" cy="576.5117" fill="#84BE84" rx="3" ry="3" style="stroke: #038048; stroke-width: 1.0;"/><text fill="#000000" font-family="sans-serif" font-size="11" lengthAdjust="spacingAndGlyphs" textLength="241" x="58.75" y="578.8198">virtual void PaintOverGraph(Draw&amp;, scale)</text><ellipse cx="49.75" cy="589.3164" fill="#84BE84" rx="3" ry="3" style="stroke: #038048; stroke-width: 1.0;"/><text fill="#000000" font-family="sans-serif" font-size="11" lengthAdjust="spacingAndGlyphs" textLength="225" x="58.75" y="591.6245">virtual void PaintElement(Draw&amp;, scale)</text><ellipse cx="49.75" cy="602.1211" fill="#84BE84" rx="3" ry="3" style="stroke: #038048; stroke-width: 1.0;"/><text fill="#000000" font-family="sans-serif" font-size="11" lengthAdjust="spacingAndGlyphs" textLength="194" x="58.75" y="604.4292">virtual void PaintOnPlot(Draw&amp;, ..)</text><ellipse cx="49.75" cy="614.9258" fill="#84BE84" rx="3" ry="3" style="stroke: #038048; stroke-width: 1.0;"/><text fill="#000000" font-family="sans-serif" font-size="11" lengthAdjust="spacingAndGlyphs" textLength="107" x="58.75" y="617.2339">virtual LeftDown(..)</text><ellipse cx="49.75" cy="627.7305" fill="#84BE84" rx="3" ry="3" style="stroke: #038048; stroke-width: 1.0;"/><text fill="#000000" font-family="sans-serif" font-size="11" lengthAdjust="spacingAndGlyphs" textLength="91" x="58.75" y="630.0386">virtual LeftUp(..)</text><ellipse cx="49.75" cy="640.5352" fill="#84BE84" rx="3" ry="3" style="stroke: #038048; stroke-width: 1.0;"/><text fill="#000000" font-family="sans-serif" font-size="11" lengthAdjust="spacingAndGlyphs" textLength="115" x="58.75" y="642.8433">virtual LeftDouble(..)</text><ellipse cx="49.75" cy="653.3398" fill="#84BE84" rx="3" ry="3" style="stroke: #038048; stroke-width: 1.0;"/><text fill="#000000" font-family="sans-serif" font-size="11" lengthAdjust="spacingAndGlyphs" textLength="103" x="58.75" y="655.6479">virtual LeftDrag(..)</text><ellipse cx="49.75" cy="666.1445" fill="#84BE84" rx="3" ry="3" style="stroke: #038048; stroke-width: 1.0;"/><text fill="#000000" font-family="sans-serif" font-size="11" lengthAdjust="spacingAndGlyphs" textLength="114" x="58.75" y="668.4526">virtual RightDown(..)</text><ellipse cx="49.75" cy="678.9492" fill="#84BE84" rx="3" ry="3" style="stroke: #038048; stroke-width: 1.0;"/><text fill="#000000" font-family="sans-serif" font-size="11" lengthAdjust="spacingAndGlyphs" textLength="98" x="58.75" y="681.2573">virtual RightUp(..)</text><ellipse cx="49.75" cy="691.7539" fill="#84BE84" rx="3" ry="3" style="stroke: #038048; stroke-width: 1.0;"/><text fill="#000000" font-family="sans-serif" font-size="11" lengthAdjust="spacingAndGlyphs" textLength="122" x="58.75" y="694.062">virtual RightDouble(..)</text><ellipse cx="49.75" cy="704.5586" fill="#84BE84" rx="3" ry="3" style="stroke: #038048; stroke-width: 1.0;"/><text fill="#000000" font-family="sans-serif" font-size="11" lengthAdjust="spacingAndGlyphs" textLength="110" x="58.75" y="706.8667">virtual RightDrag(..)</text><ellipse cx="49.75" cy="717.3633" fill="#84BE84" rx="3" ry="3" style="stroke: #038048; stroke-width: 1.0;"/><text fill="#000000" font-family="sans-serif" font-size="11" lengthAdjust="spacingAndGlyphs" textLength="122" x="58.75" y="719.6714">virtual MiddleDown(..)</text><ellipse cx="49.75" cy="730.168" fill="#84BE84" rx="3" ry="3" style="stroke: #038048; stroke-width: 1.0;"/><text fill="#000000" font-family="sans-serif" font-size="11" lengthAdjust="spacingAndGlyphs" textLength="106" x="58.75" y="732.4761">virtual MiddleUp(..)</text><ellipse cx="49.75" cy="742.9727" fill="#84BE84" rx="3" ry="3" style="stroke: #038048; stroke-width: 1.0;"/><text fill="#000000" font-family="sans-serif" font-size="11" lengthAdjust="spacingAndGlyphs" textLength="121" x="58.75" y="745.2808">virtual MouseMove(..)</text><ellipse cx="49.75" cy="755.7773" fill="#84BE84" rx="3" ry="3" style="stroke: #038048; stroke-width: 1.0;"/><text fill="#000000" font-family="sans-serif" font-size="11" lengthAdjust="spacingAndGlyphs" textLength="125" x="58.75" y="758.0854">virtual MouseWheel(..)</text><ellipse cx="49.75" cy="768.582" fill="#84BE84" rx="3" ry="3" style="stroke: #038048; stroke-width: 1.0;"/><text fill="#000000" font-family="sans-serif" font-size="11" lengthAdjust="spacingAndGlyphs" textLength="129" x="58.75" y="770.8901">virtual CursorImage(..)</text><rect fill="#FEFECE" filter="url(#f1)" height="150.4375" style="stroke: #A80036; stroke-width: 1.5;" width="389" x="791.75" y="563"/><ellipse cx="917" cy="579" fill="#ADD1B2" rx="11" ry="11" style="stroke: #A80036; stroke-width: 1.0;"/><path d="M919.3438,574.6719 L919.5156,574.75 C919.7344,574.4375 919.9375,574.3438 920.2344,574.3438 C920.5313,574.3438 920.8125,574.4844 920.9688,574.75 C921.0625,574.9063 921.0781,575.0313 921.0781,575.4688 L921.0781,576.8906 C921.0781,577.3125 921.0469,577.5 920.9375,577.6563 C920.7656,577.875 920.5,578.0156 920.2344,578.0156 C920.0156,578.0156 919.7813,577.9063 919.6406,577.7656 C919.5,577.6406 919.4688,577.5156 919.4063,577.1094 C919.3125,576.7031 919.1406,576.4844 918.6563,576.2031 C918.1875,575.9531 917.5781,575.7969 917,575.7969 C915.2656,575.7969 914.0156,577.1094 914.0156,578.8906 L914.0156,579.9844 C914.0156,581.6875 915.3125,582.7813 917.3594,582.7813 C918.125,582.7813 918.8125,582.6563 919.2344,582.3906 C919.4219,582.2969 919.4219,582.2969 919.875,581.8125 C920.0625,581.625 920.2656,581.5469 920.4844,581.5469 C920.9531,581.5469 921.3438,581.9375 921.3438,582.3906 C921.3438,582.7813 921.0156,583.2344 920.4375,583.6406 C919.6875,584.1875 918.5313,584.4844 917.3125,584.4844 C914.4219,584.4844 912.3125,582.5938 912.3125,580.0156 L912.3125,578.8906 C912.3125,576.1719 914.3125,574.0938 916.9375,574.0938 C917.8125,574.0938 918.4063,574.2344 919.3438,574.6719 Z "/><text fill="#000000" font-family="sans-serif" font-size="12" lengthAdjust="spacingAndGlyphs" textLength="130" x="937.5" y="583.1543">CoordinateConverter</text><line style="stroke: #A80036; stroke-width: 1.5;" x1="792.75" x2="1179.75" y1="595" y2="595"/><line style="stroke: #A80036; stroke-width: 1.5;" x1="792.75" x2="1179.75" y1="603" y2="603"/><ellipse cx="802.75" cy="614.9023" fill="#84BE84" rx="3" ry="3" style="stroke: #038048; stroke-width: 1.0;"/><text fill="#000000" font-family="sans-serif" font-size="11" lengthAdjust="spacingAndGlyphs" textLength="363" x="811.75" y="617.2104">virtual void update(graphMin, graphMax, screenMin, screenMax)</text><ellipse cx="802.75" cy="627.707" fill="#84BE84" rx="3" ry="3" style="stroke: #038048; stroke-width: 1.0;"/><text fill="#000000" font-family="sans-serif" font-size="11" lengthAdjust="spacingAndGlyphs" textLength="303" x="811.75" y="630.0151">virtual void updateScreenSize(screenMin, screenMax)</text><ellipse cx="802.75" cy="640.5117" fill="#84BE84" rx="3" ry="3" style="stroke: #038048; stroke-width: 1.0;"/><text fill="#000000" font-family="sans-serif" font-size="11" lengthAdjust="spacingAndGlyphs" textLength="286" x="811.75" y="642.8198">virtual void updateGraphSize(graphMin, graphMax)</text><ellipse cx="802.75" cy="653.3164" fill="#84BE84" rx="3" ry="3" style="stroke: #038048; stroke-width: 1.0;"/><text fill="#000000" font-family="sans-serif" font-size="11" lengthAdjust="spacingAndGlyphs" textLength="147" x="811.75" y="655.6245">virtual void Scroll( offset )</text><ellipse cx="802.75" cy="666.1211" fill="#84BE84" rx="3" ry="3" style="stroke: #038048; stroke-width: 1.0;"/><text fill="#000000" font-family="sans-serif" font-size="11" lengthAdjust="spacingAndGlyphs" textLength="149" x="811.75" y="668.4292">virtual void Zoom( factor )</text><ellipse cx="802.75" cy="678.9258" fill="#84BE84" rx="3" ry="3" style="stroke: #038048; stroke-width: 1.0;"/><text fill="#000000" font-family="sans-serif" font-size="11" lengthAdjust="spacingAndGlyphs" textLength="209" x="811.75" y="681.2339">virtual TypeScreenCoord toScreen(v)</text><ellipse cx="802.75" cy="691.7305" fill="#84BE84" rx="3" ry="3" style="stroke: #038048; stroke-width: 1.0;"/><text fill="#000000" font-family="sans-serif" font-size="11" lengthAdjust="spacingAndGlyphs" textLength="203" x="811.75" y="694.0386">virtual TypeGraphCoord  toGraph(v)</text><ellipse cx="802.75" cy="704.5352" fill="#84BE84" rx="3" ry="3" style="stroke: #038048; stroke-width: 1.0;"/><text fill="#000000" font-family="sans-serif" font-size="11" lengthAdjust="spacingAndGlyphs" textLength="228" x="811.75" y="706.8433">virtual const char* GetConversionType()</text><rect fill="#FEFECE" filter="url(#f1)" height="48" style="stroke: #A80036; stroke-width: 1.5;" width="184" x="513" y="872"/><ellipse cx="528" cy="888" fill="#ADD1B2" rx="11" ry="11" style="stroke: #A80036; stroke-width: 1.0;"/><path d="M530.3438,883.6719 L530.5156,883.75 C530.7344,883.4375 530.9375,883.3438 531.2344,883.3438 C531.5313,883.3438 531.8125,883.4844 531.9688,883.75 C532.0625,883.9063 532.0781,884.0313 532.0781,884.4688 L532.0781,885.8906 C532.0781,886.3125 532.0469,886.5 531.9375,886.6563 C531.7656,886.875 531.5,887.0156 531.2344,887.0156 C531.0156,887.0156 530.7813,886.9063 530.6406,886.7656 C530.5,886.6406 530.4688,886.5156 530.4063,886.1094 C530.3125,885.7031 530.1406,885.4844 529.6563,885.2031 C529.1875,884.9531 528.5781,884.7969 528,884.7969 C526.2656,884.7969 525.0156,886.1094 525.0156,887.8906 L525.0156,888.9844 C525.0156,890.6875 526.3125,891.7813 528.3594,891.7813 C529.125,891.7813 529.8125,891.6563 530.2344,891.3906 C530.4219,891.2969 530.4219,891.2969 530.875,890.8125 C531.0625,890.625 531.2656,890.5469 531.4844,890.5469 C531.9531,890.5469 532.3438,890.9375 532.3438,891.3906 C532.3438,891.7813 532.0156,892.2344 531.4375,892.6406 C530.6875,893.1875 529.5313,893.4844 528.3125,893.4844 C525.4219,893.4844 523.3125,891.5938 523.3125,889.0156 L523.3125,887.8906 C523.3125,885.1719 525.3125,883.0938 527.9375,883.0938 C528.8125,883.0938 529.4063,883.2344 530.3438,883.6719 Z "/><text fill="#000000" font-family="sans-serif" font-size="12" lengthAdjust="spacingAndGlyphs" textLength="152" x="542" y="892.1543">LogCoordinateConverter</text><line style="stroke: #A80036; stroke-width: 1.5;" x1="514" x2="696" y1="904" y2="904"/><line style="stroke: #A80036; stroke-width: 1.5;" x1="514" x2="696" y1="912" y2="912"/><rect fill="#FEFECE" filter="url(#f1)" height="48" style="stroke: #A80036; stroke-width: 1.5;" width="203" x="732.75" y="872"/><ellipse cx="747.75" cy="888" fill="#ADD1B2" rx="11" ry="11" style="stroke: #A80036; stroke-width: 1.0;"/><path d="M750.0938,883.6719 L750.2656,883.75 C750.4844,883.4375 750.6875,883.3438 750.9844,883.3438 C751.2813,883.3438 751.5625,883.4844 751.7188,883.75 C751.8125,883.9063 751.8281,884.0313 751.8281,884.4688 L751.8281,885.8906 C751.8281,886.3125 751.7969,886.5 751.6875,886.6563 C751.5156,886.875 751.25,887.0156 750.9844,887.0156 C750.7656,887.0156 750.5313,886.9063 750.3906,886.7656 C750.25,886.6406 750.2188,886.5156 750.1563,886.1094 C750.0625,885.7031 749.8906,885.4844 749.4063,885.2031 C748.9375,884.9531 748.3281,884.7969 747.75,884.7969 C746.0156,884.7969 744.7656,886.1094 744.7656,887.8906 L744.7656,888.9844 C744.7656,890.6875 746.0625,891.7813 748.1094,891.7813 C748.875,891.7813 749.5625,891.6563 749.9844,891.3906 C750.1719,891.2969 750.1719,891.2969 750.625,890.8125 C750.8125,890.625 751.0156,890.5469 751.2344,890.5469 C751.7031,890.5469 752.0938,890.9375 752.0938,891.3906 C752.0938,891.7813 751.7656,892.2344 751.1875,892.6406 C750.4375,893.1875 749.2813,893.4844 748.0625,893.4844 C745.1719,893.4844 743.0625,891.5938 743.0625,889.0156 L743.0625,887.8906 C743.0625,885.1719 745.0625,883.0938 747.6875,883.0938 C748.5625,883.0938 749.1563,883.2344 750.0938,883.6719 Z "/><text fill="#000000" font-family="sans-serif" font-size="12" lengthAdjust="spacingAndGlyphs" textLength="171" x="761.75" y="892.1543">Pow10CoordinateConverter</text><line style="stroke: #A80036; stroke-width: 1.5;" x1="733.75" x2="934.75" y1="904" y2="904"/><line style="stroke: #A80036; stroke-width: 1.5;" x1="733.75" x2="934.75" y1="912" y2="912"/><rect fill="#FEFECE" filter="url(#f1)" height="99.2188" style="stroke: #A80036; stroke-width: 1.5;" width="210" x="971" y="846.5"/><ellipse cx="986" cy="862.5" fill="#ADD1B2" rx="11" ry="11" style="stroke: #A80036; stroke-width: 1.0;"/><path d="M988.3438,858.1719 L988.5156,858.25 C988.7344,857.9375 988.9375,857.8438 989.2344,857.8438 C989.5313,857.8438 989.8125,857.9844 989.9688,858.25 C990.0625,858.4063 990.0781,858.5313 990.0781,858.9688 L990.0781,860.3906 C990.0781,860.8125 990.0469,861 989.9375,861.1563 C989.7656,861.375 989.5,861.5156 989.2344,861.5156 C989.0156,861.5156 988.7813,861.4063 988.6406,861.2656 C988.5,861.1406 988.4688,861.0156 988.4063,860.6094 C988.3125,860.2031 988.1406,859.9844 987.6563,859.7031 C987.1875,859.4531 986.5781,859.2969 986,859.2969 C984.2656,859.2969 983.0156,860.6094 983.0156,862.3906 L983.0156,863.4844 C983.0156,865.1875 984.3125,866.2813 986.3594,866.2813 C987.125,866.2813 987.8125,866.1563 988.2344,865.8906 C988.4219,865.7969 988.4219,865.7969 988.875,865.3125 C989.0625,865.125 989.2656,865.0469 989.4844,865.0469 C989.9531,865.0469 990.3438,865.4375 990.3438,865.8906 C990.3438,866.2813 990.0156,866.7344 989.4375,867.1406 C988.6875,867.6875 987.5313,867.9844 986.3125,867.9844 C983.4219,867.9844 981.3125,866.0938 981.3125,863.5156 L981.3125,862.3906 C981.3125,859.6719 983.3125,857.5938 985.9375,857.5938 C986.8125,857.5938 987.4063,857.7344 988.3438,858.1719 Z "/><text fill="#000000" font-family="sans-serif" font-size="12" lengthAdjust="spacingAndGlyphs" textLength="178" x="1000" y="866.6543">GenericCoordinateConverter</text><line style="stroke: #A80036; stroke-width: 1.5;" x1="972" x2="1180" y1="878.5" y2="878.5"/><line style="stroke: #A80036; stroke-width: 1.5;" x1="972" x2="1180" y1="886.5" y2="886.5"/><text fill="#000000" font-family="sans-serif" font-size="11" lengthAdjust="spacingAndGlyphs" textLength="101" x="977" y="900.7104">void SetConvStd()</text><text fill="#000000" font-family="sans-serif" font-size="11" lengthAdjust="spacingAndGlyphs" textLength="102" x="977" y="913.5151">void SetConvLog()</text><text fill="#000000" font-family="sans-serif" font-size="11" lengthAdjust="spacingAndGlyphs" textLength="119" x="977" y="926.3198">void SetConvPow10()</text><text fill="#000000" font-family="sans-serif" font-size="11" lengthAdjust="spacingAndGlyphs" textLength="174" x="977" y="939.1245">SetScaleType( AxisScaleType )</text><rect fill="#9ACD32" filter="url(#f1)" height="53.9375" style="stroke: #A80036; stroke-width: 1.5;" width="190" x="93" y="869"/><ellipse cx="108" cy="887.9688" fill="#FFFF00" rx="11" ry="11" style="stroke: #A80036; stroke-width: 1.0;"/><path d="M109.5781,889.7813 L105.5313,889.7813 L105.1406,890.7656 L105.5313,890.7656 C105.9844,890.7656 106.125,890.7969 106.2969,890.9219 C106.5156,891.0938 106.6406,891.3438 106.6406,891.625 C106.6406,891.9063 106.5,892.2031 106.2344,892.3438 C106.1094,892.4375 105.8906,892.4688 105.5313,892.4688 L103.2656,892.4688 C102.5156,892.4688 102.1406,892.1875 102.1406,891.625 C102.1406,891.3281 102.2969,891.0469 102.5469,890.8906 C102.7031,890.7813 102.8594,890.7656 103.2813,890.7656 L105.9219,884.25 L104.8438,884.25 C104.4063,884.25 104.2344,884.2188 104.0625,884.1094 C103.8438,883.9375 103.7031,883.6875 103.7031,883.4063 C103.7031,883.125 103.8594,882.8438 104.1094,882.6719 C104.2656,882.5781 104.3906,882.5625 104.8438,882.5625 L108.5156,882.5625 L111.9063,890.7656 C112.375,890.7656 112.5313,890.7969 112.7031,890.9375 C112.9219,891.0938 113.0625,891.3438 113.0625,891.625 C113.0625,891.9063 112.9063,892.2031 112.6563,892.3438 C112.5156,892.4375 112.2969,892.4688 111.9375,892.4688 L109.5781,892.4688 C109.1563,892.4688 108.9531,892.4219 108.8125,892.2969 C108.5938,892.1406 108.4531,891.8906 108.4531,891.625 C108.4531,891.3281 108.6094,891.0469 108.8594,890.8906 C109.0156,890.7813 109.125,890.7656 109.5781,890.7656 L109.9688,890.7656 Z M108.875,888.0781 L107.5469,884.8125 L106.2031,888.0781 Z "/><text fill="#000000" font-family="sans-serif" font-size="12" font-style="italic" lengthAdjust="spacingAndGlyphs" textLength="44" x="179" y="885.1387">«CRTP»</text><text fill="#000000" font-family="sans-serif" font-size="12" font-style="italic" lengthAdjust="spacingAndGlyphs" textLength="158" x="122" y="899.1074">CRTPGraphElementFrame</text><line style="stroke: #A80036; stroke-width: 1.5;" x1="94" x2="282" y1="906.9375" y2="906.9375"/><line style="stroke: #A80036; stroke-width: 1.5;" x1="94" x2="282" y1="914.9375" y2="914.9375"/><rect fill="#FEFECE" filter="url(#f1)" height="48" style="stroke: #A80036; stroke-width: 1.5;" width="146" x="38" y="1079"/><ellipse cx="53" cy="1095" fill="#ADD1B2" rx="11" ry="11" style="stroke: #A80036; stroke-width: 1.0;"/><path d="M55.3438,1090.6719 L55.5156,1090.75 C55.7344,1090.4375 55.9375,1090.3438 56.2344,1090.3438 C56.5313,1090.3438 56.8125,1090.4844 56.9688,1090.75 C57.0625,1090.9063 57.0781,1091.0313 57.0781,1091.4688 L57.0781,1092.8906 C57.0781,1093.3125 57.0469,1093.5 56.9375,1093.6563 C56.7656,1093.875 56.5,1094.0156 56.2344,1094.0156 C56.0156,1094.0156 55.7813,1093.9063 55.6406,1093.7656 C55.5,1093.6406 55.4688,1093.5156 55.4063,1093.1094 C55.3125,1092.7031 55.1406,1092.4844 54.6563,1092.2031 C54.1875,1091.9531 53.5781,1091.7969 53,1091.7969 C51.2656,1091.7969 50.0156,1093.1094 50.0156,1094.8906 L50.0156,1095.9844 C50.0156,1097.6875 51.3125,1098.7813 53.3594,1098.7813 C54.125,1098.7813 54.8125,1098.6563 55.2344,1098.3906 C55.4219,1098.2969 55.4219,1098.2969 55.875,1097.8125 C56.0625,1097.625 56.2656,1097.5469 56.4844,1097.5469 C56.9531,1097.5469 57.3438,1097.9375 57.3438,1098.3906 C57.3438,1098.7813 57.0156,1099.2344 56.4375,1099.6406 C55.6875,1100.1875 54.5313,1100.4844 53.3125,1100.4844 C50.4219,1100.4844 48.3125,1098.5938 48.3125,1096.0156 L48.3125,1094.8906 C48.3125,1092.1719 50.3125,1090.0938 52.9375,1090.0938 C53.8125,1090.0938 54.4063,1090.2344 55.3438,1090.6719 Z "/><text fill="#000000" font-family="sans-serif" font-size="12" lengthAdjust="spacingAndGlyphs" textLength="114" x="67" y="1099.1543">BlankAreaElement</text><line style="stroke: #A80036; stroke-width: 1.5;" x1="39" x2="183" y1="1111" y2="1111"/><line style="stroke: #A80036; stroke-width: 1.5;" x1="39" x2="183" y1="1119" y2="1119"/><rect fill="#FEFECE" filter="url(#f1)" height="48" style="stroke: #A80036; stroke-width: 1.5;" width="116" x="219" y="1079"/><ellipse cx="234" cy="1095" fill="#ADD1B2" rx="11" ry="11" style="stroke: #A80036; stroke-width: 1.0;"/><path d="M236.3438,1090.6719 L236.5156,1090.75 C236.7344,1090.4375 236.9375,1090.3438 237.2344,1090.3438 C237.5313,1090.3438 237.8125,1090.4844 237.9688,1090.75 C238.0625,1090.9063 238.0781,1091.0313 238.0781,1091.4688 L238.0781,1092.8906 C238.0781,1093.3125 238.0469,1093.5 237.9375,1093.6563 C237.7656,1093.875 237.5,1094.0156 237.2344,1094.0156 C237.0156,1094.0156 236.7813,1093.9063 236.6406,1093.7656 C236.5,1093.6406 236.4688,1093.5156 236.4063,1093.1094 C236.3125,1092.7031 236.1406,1092.4844 235.6563,1092.2031 C235.1875,1091.9531 234.5781,1091.7969 234,1091.7969 C232.2656,1091.7969 231.0156,1093.1094 231.0156,1094.8906 L231.0156,1095.9844 C231.0156,1097.6875 232.3125,1098.7813 234.3594,1098.7813 C235.125,1098.7813 235.8125,1098.6563 236.2344,1098.3906 C236.4219,1098.2969 236.4219,1098.2969 236.875,1097.8125 C237.0625,1097.625 237.2656,1097.5469 237.4844,1097.5469 C237.9531,1097.5469 238.3438,1097.9375 238.3438,1098.3906 C238.3438,1098.7813 238.0156,1099.2344 237.4375,1099.6406 C236.6875,1100.1875 235.5313,1100.4844 234.3125,1100.4844 C231.4219,1100.4844 229.3125,1098.5938 229.3125,1096.0156 L229.3125,1094.8906 C229.3125,1092.1719 231.3125,1090.0938 233.9375,1090.0938 C234.8125,1090.0938 235.4063,1090.2344 236.3438,1090.6719 Z "/><text fill="#000000" font-family="sans-serif" font-size="12" lengthAdjust="spacingAndGlyphs" textLength="84" x="248" y="1099.1543">LabelElement</text><line style="stroke: #A80036; stroke-width: 1.5;" x1="220" x2="334" y1="1111" y2="1111"/><line style="stroke: #A80036; stroke-width: 1.5;" x1="220" x2="334" y1="1119" y2="1119"/><rect fill="#FEFECE" filter="url(#f1)" height="48" style="stroke: #A80036; stroke-width: 1.5;" width="129" x="370.75" y="1079"/><ellipse cx="385.75" cy="1095" fill="#ADD1B2" rx="11" ry="11" style="stroke: #A80036; stroke-width: 1.0;"/><path d="M388.0938,1090.6719 L388.2656,1090.75 C388.4844,1090.4375 388.6875,1090.3438 388.9844,1090.3438 C389.2813,1090.3438 389.5625,1090.4844 389.7188,1090.75 C389.8125,1090.9063 389.8281,1091.0313 389.8281,1091.4688 L389.8281,1092.8906 C389.8281,1093.3125 389.7969,1093.5 389.6875,1093.6563 C389.5156,1093.875 389.25,1094.0156 388.9844,1094.0156 C388.7656,1094.0156 388.5313,1093.9063 388.3906,1093.7656 C388.25,1093.6406 388.2188,1093.5156 388.1563,1093.1094 C388.0625,1092.7031 387.8906,1092.4844 387.4063,1092.2031 C386.9375,1091.9531 386.3281,1091.7969 385.75,1091.7969 C384.0156,1091.7969 382.7656,1093.1094 382.7656,1094.8906 L382.7656,1095.9844 C382.7656,1097.6875 384.0625,1098.7813 386.1094,1098.7813 C386.875,1098.7813 387.5625,1098.6563 387.9844,1098.3906 C388.1719,1098.2969 388.1719,1098.2969 388.625,1097.8125 C388.8125,1097.625 389.0156,1097.5469 389.2344,1097.5469 C389.7031,1097.5469 390.0938,1097.9375 390.0938,1098.3906 C390.0938,1098.7813 389.7656,1099.2344 389.1875,1099.6406 C388.4375,1100.1875 387.2813,1100.4844 386.0625,1100.4844 C383.1719,1100.4844 381.0625,1098.5938 381.0625,1096.0156 L381.0625,1094.8906 C381.0625,1092.1719 383.0625,1090.0938 385.6875,1090.0938 C386.5625,1090.0938 387.1563,1090.2344 388.0938,1090.6719 Z "/><text fill="#000000" font-family="sans-serif" font-size="12" lengthAdjust="spacingAndGlyphs" textLength="97" x="399.75" y="1099.1543">LegendElement</text><line style="stroke: #A80036; stroke-width: 1.5;" x1="371.75" x2="498.75" y1="1111" y2="1111"/><line style="stroke: #A80036; stroke-width: 1.5;" x1="371.75" x2="498.75" y1="1119" y2="1119"/><rect fill="#FEFECE" filter="url(#f1)" height="188.8516" style="stroke: #A80036; stroke-width: 1.5;" width="349" x="534.75" y="1008.5"/><ellipse cx="665" cy="1024.5" fill="#ADD1B2" rx="11" ry="11" style="stroke: #A80036; stroke-width: 1.0;"/><path d="M667.3438,1020.1719 L667.5156,1020.25 C667.7344,1019.9375 667.9375,1019.8438 668.2344,1019.8438 C668.5313,1019.8438 668.8125,1019.9844 668.9688,1020.25 C669.0625,1020.4063 669.0781,1020.5313 669.0781,1020.9688 L669.0781,1022.3906 C669.0781,1022.8125 669.0469,1023 668.9375,1023.1563 C668.7656,1023.375 668.5,1023.5156 668.2344,1023.5156 C668.0156,1023.5156 667.7813,1023.4063 667.6406,1023.2656 C667.5,1023.1406 667.4688,1023.0156 667.4063,1022.6094 C667.3125,1022.2031 667.1406,1021.9844 666.6563,1021.7031 C666.1875,1021.4531 665.5781,1021.2969 665,1021.2969 C663.2656,1021.2969 662.0156,1022.6094 662.0156,1024.3906 L662.0156,1025.4844 C662.0156,1027.1875 663.3125,1028.2813 665.3594,1028.2813 C666.125,1028.2813 666.8125,1028.1563 667.2344,1027.8906 C667.4219,1027.7969 667.4219,1027.7969 667.875,1027.3125 C668.0625,1027.125 668.2656,1027.0469 668.4844,1027.0469 C668.9531,1027.0469 669.3438,1027.4375 669.3438,1027.8906 C669.3438,1028.2813 669.0156,1028.7344 668.4375,1029.1406 C667.6875,1029.6875 666.5313,1029.9844 665.3125,1029.9844 C662.4219,1029.9844 660.3125,1028.0938 660.3125,1025.5156 L660.3125,1024.3906 C660.3125,1021.6719 662.3125,1019.5938 664.9375,1019.5938 C665.8125,1019.5938 666.4063,1019.7344 667.3438,1020.1719 Z "/><text fill="#000000" font-family="sans-serif" font-size="12" lengthAdjust="spacingAndGlyphs" textLength="80" x="685.5" y="1028.6543">GridAxisDraw</text><line style="stroke: #A80036; stroke-width: 1.5;" x1="535.75" x2="882.75" y1="1040.5" y2="1040.5"/><line style="stroke: #A80036; stroke-width: 1.5;" x1="535.75" x2="882.75" y1="1048.5" y2="1048.5"/><text fill="#000000" font-family="sans-serif" font-size="11" lengthAdjust="spacingAndGlyphs" textLength="209" x="540.75" y="1062.7104">GridAxisDraw&amp; setAxisColor(Color v)</text><text fill="#000000" font-family="sans-serif" font-size="11" lengthAdjust="spacingAndGlyphs" textLength="193" x="552.75" y="1075.5151">GridAxisDraw&amp; setAxisWidth(int v)</text><text fill="#000000" font-family="sans-serif" font-size="11" lengthAdjust="spacingAndGlyphs" textLength="221" x="552.75" y="1088.3198">GridAxisDraw&amp; setAxisTextFont(Font v)</text><text fill="#000000" font-family="sans-serif" font-size="11" lengthAdjust="spacingAndGlyphs" textLength="233" x="552.75" y="1101.1245">GridAxisDraw&amp; setAxisTextColor(Color v)</text><text fill="#000000" font-family="sans-serif" font-size="11" lengthAdjust="spacingAndGlyphs" textLength="231" x="552.75" y="1113.9292">GridAxisDraw&amp; setAxisTickColor(Color v)</text><text fill="#000000" font-family="sans-serif" font-size="11" lengthAdjust="spacingAndGlyphs" textLength="210" x="552.75" y="1126.7339">GridAxisDraw&amp; setGridColor(Color v)</text><text fill="#000000" font-family="sans-serif" font-size="11" lengthAdjust="spacingAndGlyphs" textLength="261" x="552.75" y="1139.5386">GridAxisDraw&amp; setMajorTickMark(TickMark* v)</text><text fill="#000000" font-family="sans-serif" font-size="11" lengthAdjust="spacingAndGlyphs" textLength="261" x="552.75" y="1152.3433">GridAxisDraw&amp; setMinorTickMark(TickMark* v)</text><text fill="#000000" font-family="sans-serif" font-size="11" lengthAdjust="spacingAndGlyphs" textLength="325" x="552.75" y="1165.1479">GridAxisDraw&amp; setAxisTextFormat(TypeFormatTextCbk v)</text><text fill="#000000" font-family="sans-serif" font-size="11" lengthAdjust="spacingAndGlyphs" textLength="215" x="552.75" y="1177.9526">GridAxisDraw&amp; resetAxisTextFormat()</text><text fill="#000000" font-family="sans-serif" font-size="11" lengthAdjust="spacingAndGlyphs" textLength="205" x="552.75" y="1190.7573">GridAxisDraw&amp; setAxisDateFormat()</text><rect fill="#FEFECE" filter="url(#f1)" height="124.8281" style="stroke: #A80036; stroke-width: 1.5;" width="352" x="533" y="1276.5"/><ellipse cx="650.25" cy="1292.5" fill="#ADD1B2" rx="11" ry="11" style="stroke: #A80036; stroke-width: 1.0;"/><path d="M652.5938,1288.1719 L652.7656,1288.25 C652.9844,1287.9375 653.1875,1287.8438 653.4844,1287.8438 C653.7813,1287.8438 654.0625,1287.9844 654.2188,1288.25 C654.3125,1288.4063 654.3281,1288.5313 654.3281,1288.9688 L654.3281,1290.3906 C654.3281,1290.8125 654.2969,1291 654.1875,1291.1563 C654.0156,1291.375 653.75,1291.5156 653.4844,1291.5156 C653.2656,1291.5156 653.0313,1291.4063 652.8906,1291.2656 C652.75,1291.1406 652.7188,1291.0156 652.6563,1290.6094 C652.5625,1290.2031 652.3906,1289.9844 651.9063,1289.7031 C651.4375,1289.4531 650.8281,1289.2969 650.25,1289.2969 C648.5156,1289.2969 647.2656,1290.6094 647.2656,1292.3906 L647.2656,1293.4844 C647.2656,1295.1875 648.5625,1296.2813 650.6094,1296.2813 C651.375,1296.2813 652.0625,1296.1563 652.4844,1295.8906 C652.6719,1295.7969 652.6719,1295.7969 653.125,1295.3125 C653.3125,1295.125 653.5156,1295.0469 653.7344,1295.0469 C654.2031,1295.0469 654.5938,1295.4375 654.5938,1295.8906 C654.5938,1296.2813 654.2656,1296.7344 653.6875,1297.1406 C652.9375,1297.6875 651.7813,1297.9844 650.5625,1297.9844 C647.6719,1297.9844 645.5625,1296.0938 645.5625,1293.5156 L645.5625,1292.3906 C645.5625,1289.6719 647.5625,1287.5938 650.1875,1287.5938 C651.0625,1287.5938 651.6563,1287.7344 652.5938,1288.1719 Z "/><text fill="#000000" font-family="sans-serif" font-size="12" lengthAdjust="spacingAndGlyphs" textLength="109" x="670.75" y="1296.6543">GridStepManager</text><line style="stroke: #A80036; stroke-width: 1.5;" x1="534" x2="884" y1="1308.5" y2="1308.5"/><line style="stroke: #A80036; stroke-width: 1.5;" x1="534" x2="884" y1="1316.5" y2="1316.5"/><ellipse cx="544" cy="1328.4023" fill="#84BE84" rx="3" ry="3" style="stroke: #038048; stroke-width: 1.0;"/><text fill="#000000" font-family="sans-serif" font-size="11" lengthAdjust="spacingAndGlyphs" textLength="149" x="553" y="1330.7104">void SetNbSteps(nbSteps)</text><ellipse cx="544" cy="1341.207" fill="#84BE84" rx="3" ry="3" style="stroke: #038048; stroke-width: 1.0;"/><text fill="#000000" font-family="sans-serif" font-size="11" lengthAdjust="spacingAndGlyphs" textLength="326" x="553" y="1343.5151">void setGridStepCalcBack(TypeGridStepCalcCallBack cbk)</text><ellipse cx="544" cy="1354.0117" fill="#84BE84" rx="3" ry="3" style="stroke: #038048; stroke-width: 1.0;"/><text fill="#000000" font-family="sans-serif" font-size="11" lengthAdjust="spacingAndGlyphs" textLength="129" x="553" y="1356.3198">void setStdGridSteps()</text><ellipse cx="544" cy="1366.8164" fill="#84BE84" rx="3" ry="3" style="stroke: #038048; stroke-width: 1.0;"/><text fill="#000000" font-family="sans-serif" font-size="11" lengthAdjust="spacingAndGlyphs" textLength="130" x="553" y="1369.1245">void setLogGridSteps()</text><ellipse cx="544" cy="1379.6211" fill="#84BE84" rx="3" ry="3" style="stroke: #038048; stroke-width: 1.0;"/><text fill="#000000" font-family="sans-serif" font-size="11" lengthAdjust="spacingAndGlyphs" textLength="138" x="553" y="1381.9292">void setTimeGridSteps()</text><ellipse cx="544" cy="1392.4258" fill="#84BE84" rx="3" ry="3" style="stroke: #038048; stroke-width: 1.0;"/><text fill="#000000" font-family="sans-serif" font-size="11" lengthAdjust="spacingAndGlyphs" textLength="136" x="553" y="1394.7339">void setDateGridSteps()</text><rect fill="#FEFECE" filter="url(#f1)" height="73.6094" style="stroke: #A80036; stroke-width: 1.5;" width="214" x="513" y="1464"/><ellipse cx="565.25" cy="1480" fill="#ADD1B2" rx="11" ry="11" style="stroke: #A80036; stroke-width: 1.0;"/><path d="M567.5938,1475.6719 L567.7656,1475.75 C567.9844,1475.4375 568.1875,1475.3438 568.4844,1475.3438 C568.7813,1475.3438 569.0625,1475.4844 569.2188,1475.75 C569.3125,1475.9063 569.3281,1476.0313 569.3281,1476.4688 L569.3281,1477.8906 C569.3281,1478.3125 569.2969,1478.5 569.1875,1478.6563 C569.0156,1478.875 568.75,1479.0156 568.4844,1479.0156 C568.2656,1479.0156 568.0313,1478.9063 567.8906,1478.7656 C567.75,1478.6406 567.7188,1478.5156 567.6563,1478.1094 C567.5625,1477.7031 567.3906,1477.4844 566.9063,1477.2031 C566.4375,1476.9531 565.8281,1476.7969 565.25,1476.7969 C563.5156,1476.7969 562.2656,1478.1094 562.2656,1479.8906 L562.2656,1480.9844 C562.2656,1482.6875 563.5625,1483.7813 565.6094,1483.7813 C566.375,1483.7813 567.0625,1483.6563 567.4844,1483.3906 C567.6719,1483.2969 567.6719,1483.2969 568.125,1482.8125 C568.3125,1482.625 568.5156,1482.5469 568.7344,1482.5469 C569.2031,1482.5469 569.5938,1482.9375 569.5938,1483.3906 C569.5938,1483.7813 569.2656,1484.2344 568.6875,1484.6406 C567.9375,1485.1875 566.7813,1485.4844 565.5625,1485.4844 C562.6719,1485.4844 560.5625,1483.5938 560.5625,1481.0156 L560.5625,1479.8906 C560.5625,1477.1719 562.5625,1475.0938 565.1875,1475.0938 C566.0625,1475.0938 566.6563,1475.2344 567.5938,1475.6719 Z "/><text fill="#000000" font-family="sans-serif" font-size="12" lengthAdjust="spacingAndGlyphs" textLength="101" x="585.75" y="1484.1543">GridStepIterator</text><line style="stroke: #A80036; stroke-width: 1.5;" x1="514" x2="726" y1="1496" y2="1496"/><line style="stroke: #A80036; stroke-width: 1.5;" x1="514" x2="726" y1="1504" y2="1504"/><ellipse cx="524" cy="1515.9023" fill="#84BE84" rx="3" ry="3" style="stroke: #038048; stroke-width: 1.0;"/><text fill="#000000" font-family="sans-serif" font-size="11" lengthAdjust="spacingAndGlyphs" textLength="157" x="533" y="1518.2104">TypeGraphCoord getValue()</text><ellipse cx="524" cy="1528.707" fill="#84BE84" rx="3" ry="3" style="stroke: #038048; stroke-width: 1.0;"/><text fill="#000000" font-family="sans-serif" font-size="11" lengthAdjust="spacingAndGlyphs" textLength="188" x="533" y="1531.0151">TypeScreenCoord getStepValue()</text><rect fill="#FEFECE" filter="url(#f1)" height="86.4141" style="stroke: #A80036; stroke-width: 1.5;" width="217" x="643.75" y="1616"/><ellipse cx="706" cy="1632" fill="#ADD1B2" rx="11" ry="11" style="stroke: #A80036; stroke-width: 1.0;"/><path d="M708.3438,1627.6719 L708.5156,1627.75 C708.7344,1627.4375 708.9375,1627.3438 709.2344,1627.3438 C709.5313,1627.3438 709.8125,1627.4844 709.9688,1627.75 C710.0625,1627.9063 710.0781,1628.0313 710.0781,1628.4688 L710.0781,1629.8906 C710.0781,1630.3125 710.0469,1630.5 709.9375,1630.6563 C709.7656,1630.875 709.5,1631.0156 709.2344,1631.0156 C709.0156,1631.0156 708.7813,1630.9063 708.6406,1630.7656 C708.5,1630.6406 708.4688,1630.5156 708.4063,1630.1094 C708.3125,1629.7031 708.1406,1629.4844 707.6563,1629.2031 C707.1875,1628.9531 706.5781,1628.7969 706,1628.7969 C704.2656,1628.7969 703.0156,1630.1094 703.0156,1631.8906 L703.0156,1632.9844 C703.0156,1634.6875 704.3125,1635.7813 706.3594,1635.7813 C707.125,1635.7813 707.8125,1635.6563 708.2344,1635.3906 C708.4219,1635.2969 708.4219,1635.2969 708.875,1634.8125 C709.0625,1634.625 709.2656,1634.5469 709.4844,1634.5469 C709.9531,1634.5469 710.3438,1634.9375 710.3438,1635.3906 C710.3438,1635.7813 710.0156,1636.2344 709.4375,1636.6406 C708.6875,1637.1875 707.5313,1637.4844 706.3125,1637.4844 C703.4219,1637.4844 701.3125,1635.5938 701.3125,1633.0156 L701.3125,1631.8906 C701.3125,1629.1719 703.3125,1627.0938 705.9375,1627.0938 C706.8125,1627.0938 707.4063,1627.2344 708.3438,1627.6719 Z "/><text fill="#000000" font-family="sans-serif" font-size="12" lengthAdjust="spacingAndGlyphs" textLength="84" x="726.5" y="1636.1543">GridStepData</text><line style="stroke: #A80036; stroke-width: 1.5;" x1="644.75" x2="859.75" y1="1648" y2="1648"/><ellipse cx="654.75" cy="1659.9023" fill="none" rx="3" ry="3" style="stroke: #038048; stroke-width: 1.0;"/><text fill="#000000" font-family="sans-serif" font-size="11" lengthAdjust="spacingAndGlyphs" textLength="191" x="663.75" y="1662.2104">TypeGraphCoord stepGraphValue</text><ellipse cx="654.75" cy="1672.707" fill="none" rx="3" ry="3" style="stroke: #038048; stroke-width: 1.0;"/><text fill="#000000" font-family="sans-serif" font-size="11" lengthAdjust="spacingAndGlyphs" textLength="91" x="663.75" y="1675.0151">String         text</text><ellipse cx="654.75" cy="1685.5117" fill="none" rx="3" ry="3" style="stroke: #038048; stroke-width: 1.0;"/><text fill="#000000" font-family="sans-serif" font-size="11" lengthAdjust="spacingAndGlyphs" textLength="157" x="663.75" y="1687.8198">Value          customParams</text><line style="stroke: #A80036; stroke-width: 1.5;" x1="644.75" x2="859.75" y1="1694.4141" y2="1694.4141"/><rect fill="#FEFECE" filter="url(#f1)" height="48" style="stroke: #A80036; stroke-width: 1.5;" width="86" x="1216" y="614"/><ellipse cx="1231" cy="630" fill="#ADD1B2" rx="11" ry="11" style="stroke: #A80036; stroke-width: 1.0;"/><path d="M1233.3438,625.6719 L1233.5156,625.75 C1233.7344,625.4375 1233.9375,625.3438 1234.2344,625.3438 C1234.5313,625.3438 1234.8125,625.4844 1234.9688,625.75 C1235.0625,625.9063 1235.0781,626.0313 1235.0781,626.4688 L1235.0781,627.8906 C1235.0781,628.3125 1235.0469,628.5 1234.9375,628.6563 C1234.7656,628.875 1234.5,629.0156 1234.2344,629.0156 C1234.0156,629.0156 1233.7813,628.9063 1233.6406,628.7656 C1233.5,628.6406 1233.4688,628.5156 1233.4063,628.1094 C1233.3125,627.7031 1233.1406,627.4844 1232.6563,627.2031 C1232.1875,626.9531 1231.5781,626.7969 1231,626.7969 C1229.2656,626.7969 1228.0156,628.1094 1228.0156,629.8906 L1228.0156,630.9844 C1228.0156,632.6875 1229.3125,633.7813 1231.3594,633.7813 C1232.125,633.7813 1232.8125,633.6563 1233.2344,633.3906 C1233.4219,633.2969 1233.4219,633.2969 1233.875,632.8125 C1234.0625,632.625 1234.2656,632.5469 1234.4844,632.5469 C1234.9531,632.5469 1235.3438,632.9375 1235.3438,633.3906 C1235.3438,633.7813 1235.0156,634.2344 1234.4375,634.6406 C1233.6875,635.1875 1232.5313,635.4844 1231.3125,635.4844 C1228.4219,635.4844 1226.3125,633.5938 1226.3125,631.0156 L1226.3125,629.8906 C1226.3125,627.1719 1228.3125,625.0938 1230.9375,625.0938 C1231.8125,625.0938 1232.4063,625.2344 1233.3438,625.6719 Z "/><text fill="#000000" font-family="sans-serif" font-size="12" lengthAdjust="spacingAndGlyphs" textLength="54" x="1245" y="634.1543">MarkPlot</text><line style="stroke: #A80036; stroke-width: 1.5;" x1="1217" x2="1301" y1="646" y2="646"/><line style="stroke: #A80036; stroke-width: 1.5;" x1="1217" x2="1301" y1="654" y2="654"/><rect fill="#FEFECE" filter="url(#f1)" height="48" style="stroke: #A80036; stroke-width: 1.5;" width="95" x="1337.75" y="614"/><ellipse cx="1352.75" cy="630" fill="#ADD1B2" rx="11" ry="11" style="stroke: #A80036; stroke-width: 1.0;"/><path d="M1355.0938,625.6719 L1355.2656,625.75 C1355.4844,625.4375 1355.6875,625.3438 1355.9844,625.3438 C1356.2813,625.3438 1356.5625,625.4844 1356.7188,625.75 C1356.8125,625.9063 1356.8281,626.0313 1356.8281,626.4688 L1356.8281,627.8906 C1356.8281,628.3125 1356.7969,628.5 1356.6875,628.6563 C1356.5156,628.875 1356.25,629.0156 1355.9844,629.0156 C1355.7656,629.0156 1355.5313,628.9063 1355.3906,628.7656 C1355.25,628.6406 1355.2188,628.5156 1355.1563,628.1094 C1355.0625,627.7031 1354.8906,627.4844 1354.4063,627.2031 C1353.9375,626.9531 1353.3281,626.7969 1352.75,626.7969 C1351.0156,626.7969 1349.7656,628.1094 1349.7656,629.8906 L1349.7656,630.9844 C1349.7656,632.6875 1351.0625,633.7813 1353.1094,633.7813 C1353.875,633.7813 1354.5625,633.6563 1354.9844,633.3906 C1355.1719,633.2969 1355.1719,633.2969 1355.625,632.8125 C1355.8125,632.625 1356.0156,632.5469 1356.2344,632.5469 C1356.7031,632.5469 1357.0938,632.9375 1357.0938,633.3906 C1357.0938,633.7813 1356.7656,634.2344 1356.1875,634.6406 C1355.4375,635.1875 1354.2813,635.4844 1353.0625,635.4844 C1350.1719,635.4844 1348.0625,633.5938 1348.0625,631.0156 L1348.0625,629.8906 C1348.0625,627.1719 1350.0625,625.0938 1352.6875,625.0938 C1353.5625,625.0938 1354.1563,625.2344 1355.0938,625.6719 Z "/><text fill="#000000" font-family="sans-serif" font-size="12" lengthAdjust="spacingAndGlyphs" textLength="63" x="1366.75" y="634.1543">SeriesPlot</text><line style="stroke: #A80036; stroke-width: 1.5;" x1="1338.75" x2="1431.75" y1="646" y2="646"/><line style="stroke: #A80036; stroke-width: 1.5;" x1="1338.75" x2="1431.75" y1="654" y2="654"/><path d="M1092,128.38 C1092,142.57 1092,157.78 1092,169.87 " fill="none" style="stroke: #A80036; stroke-width: 1.0;"/><polygon fill="none" points="1085,128.17,1092,108.17,1099,128.17,1085,128.17" style="stroke: #A80036; stroke-width: 1.0;"/><path d="M1092,231.37 C1092,246.64 1092,264.96 1092,282.73 " fill="none" style="stroke: #A80036; stroke-width: 1.0;"/><polygon fill="#A80036" points="1092,295.83,1096,289.83,1092,283.83,1088,289.83,1092,295.83" style="stroke: #A80036; stroke-width: 1.0;"/><polygon fill="#A80036" points="1092,218.12,1088,227.12,1092,223.12,1096,227.12,1092,218.12" style="stroke: #A80036; stroke-width: 1.0;"/><line style="stroke: #A80036; stroke-width: 1.0;" x1="1092" x2="1092" y1="223.12" y2="231.12"/><text fill="#000000" font-family="sans-serif" font-size="13" lengthAdjust="spacingAndGlyphs" textLength="38" x="1093" y="261.0669">series</text><path d="M313.761,415.69 C298.076,440.18 279.213,469.63 260.44,498.93 " fill="none" style="stroke: #A80036; stroke-width: 1.0;"/><polygon fill="#A80036" points="316.653,411.18,308.4273,416.5965,313.9538,415.3888,315.1614,420.9153,316.653,411.18" style="stroke: #A80036; stroke-width: 1.0;"/><text fill="#000000" font-family="sans-serif" font-size="13" lengthAdjust="spacingAndGlyphs" textLength="42" x="294" y="457.0669">parent</text><path d="M709,1210.953 C709,1228.653 709,1246.661 709,1263.342 " fill="none" style="stroke: #A80036; stroke-width: 1.0;"/><polygon fill="#A80036" points="709,1276.405,713,1267.405,709,1271.405,705,1267.405,709,1276.405" style="stroke: #A80036; stroke-width: 1.0;"/><line style="stroke: #A80036; stroke-width: 1.0;" x1="709" x2="709" y1="1271.405" y2="1263.4045"/><polygon fill="#A80036" points="709,1197.828,705,1203.828,709,1209.828,713,1203.828,709,1197.828" style="stroke: #A80036; stroke-width: 1.0;"/><text fill="#000000" font-family="sans-serif" font-size="13" lengthAdjust="spacingAndGlyphs" textLength="117" x="710" y="1241.0669">_gridStepManager</text><text fill="#000000" font-family="sans-serif" font-size="13" lengthAdjust="spacingAndGlyphs" textLength="8" x="699.6145" y="1217.4199">1</text><text fill="#000000" font-family="sans-serif" font-size="13" lengthAdjust="spacingAndGlyphs" textLength="8" x="699.5078" y="1265.4885">1</text><path d="M674.59,1401.86 C663.949,1420.991 652.495,1441.582 642.84,1458.939 " fill="none" style="stroke: #A80036; stroke-width: 1.0;"/><polygon fill="#A80036" points="640.167,1463.745,648.0367,1457.8232,642.5969,1459.3752,641.045,1453.9354,640.167,1463.745" style="stroke: #A80036; stroke-width: 1.0;"/><path d="M733.366,1414.214 C746.38,1458.332 760.774,1515.713 766,1568 C767.13,1579.309 766.522,1591.362 765.063,1602.85 " fill="none" style="stroke: #A80036; stroke-width: 1.0;"/><polygon fill="#A80036" points="763.012,1615.998,768.3516,1607.7222,763.7828,1611.0578,760.4473,1606.4889,763.012,1615.998" style="stroke: #A80036; stroke-width: 1.0;"/><line style="stroke: #A80036; stroke-width: 1.0;" x1="763.7828" x2="765.016" y1="1611.0578" y2="1603.1535"/><polygon fill="#A80036" points="729.562,1401.555,727.4573,1408.4521,733.0144,1413.0476,735.1191,1406.1505,729.562,1401.555" style="stroke: #A80036; stroke-width: 1.0;"/><text fill="#000000" font-family="sans-serif" font-size="13" lengthAdjust="spacingAndGlyphs" textLength="135" x="762" y="1505.0669">_stepDrawingParams</text><text fill="#000000" font-family="sans-serif" font-size="13" lengthAdjust="spacingAndGlyphs" textLength="24" x="737.6973" y="1604.8027">100</text><path d="M659.227,1548.359 C674.529,1566.443 692.142,1587.259 707.884,1605.862 " fill="none" style="stroke: #A80036; stroke-width: 1.0;"/><polygon fill="#A80036" points="716.409,1615.938,713.6486,1606.4839,713.1791,1612.1212,707.5418,1611.6518,716.409,1615.938" style="stroke: #A80036; stroke-width: 1.0;"/><line style="stroke: #A80036; stroke-width: 1.0;" x1="713.1791" x2="708.012" y1="1612.1212" y2="1606.014"/><polygon fill="none" points="650.615,1538.182,651.437,1545.3461,658.3661,1547.3428,657.5442,1540.1787,650.615,1538.182" style="stroke: #A80036; stroke-width: 1.0;"/><text fill="#000000" font-family="sans-serif" font-size="13" lengthAdjust="spacingAndGlyphs" textLength="66" x="690" y="1581.0669">_stepData</text><text fill="#000000" font-family="sans-serif" font-size="13" lengthAdjust="spacingAndGlyphs" textLength="8" x="645.8575" y="1557.6927">1</text><text fill="#000000" font-family="sans-serif" font-size="13" lengthAdjust="spacingAndGlyphs" textLength="7" x="702.9882" y="1605.0574">*</text><path d="M181.883,797.133 C183.622,824.95 185.235,850.754 186.367,868.875 " fill="none" style="stroke: #A80036; stroke-width: 1.0;"/><polygon fill="none" points="174.894,797.513,180.632,777.116,188.866,796.64,174.894,797.513" style="stroke: #A80036; stroke-width: 1.0;"/><path d="M170.953,942.385 C155.085,984.63 132.076,1045.89 119.684,1078.881 " fill="none" style="stroke: #A80036; stroke-width: 1.0;"/><polygon fill="none" points="164.506,939.642,178.091,923.38,177.612,944.565,164.506,939.642" style="stroke: #A80036; stroke-width: 1.0;"/><path d="M207.454,941.81 C225.802,984.073 252.575,1045.74 266.963,1078.881 " fill="none" style="stroke: #A80036; stroke-width: 1.0;"/><polygon fill="none" points="200.997,944.514,199.453,923.38,213.839,938.938,200.997,944.514" style="stroke: #A80036; stroke-width: 1.0;"/><path d="M250.395,933.536 C282.508,953.656 321.433,980.155 353,1008 C377.686,1029.775 401.966,1058.831 417.619,1078.845 " fill="none" style="stroke: #A80036; stroke-width: 1.0;"/><polygon fill="none" points="246.711,939.489,233.344,923.047,254.047,927.564,246.711,939.489" style="stroke: #A80036; stroke-width: 1.0;"/><path d="M262.772,931.037 C275.42,936.328 288.503,941.518 301,946 C395.014,979.716 423.789,972.125 517,1008 C522.802,1010.233 528.666,1012.576 534.56,1015.005 " fill="none" style="stroke: #A80036; stroke-width: 1.0;"/><polygon fill="none" points="259.665,937.321,244.041,923.007,265.181,924.453,259.665,937.321" style="stroke: #A80036; stroke-width: 1.0;"/><path d="M859.046,724.3 C781.673,776.291 688.504,838.892 639.312,871.945 " fill="none" style="stroke: #A80036; stroke-width: 1.0;"/><polygon fill="none" points="855.294,718.39,875.799,713.05,863.102,730.01,855.294,718.39" style="stroke: #A80036; stroke-width: 1.0;"/><path d="M931.635,730.56 C901.55,781.231 866.532,840.209 847.689,871.945 " fill="none" style="stroke: #A80036; stroke-width: 1.0;"/><polygon fill="none" points="925.805,726.67,942.035,713.05,937.843,733.82,925.805,726.67" style="stroke: #A80036; stroke-width: 1.0;"/><path d="M1018.75,732.16 C1032.33,770.785 1047.52,813.996 1058.84,846.194 " fill="none" style="stroke: #A80036; stroke-width: 1.0;"/><polygon fill="none" points="1012.06,734.235,1012.03,713.05,1025.27,729.59,1012.06,734.235" style="stroke: #A80036; stroke-width: 1.0;"/><path d="M318.607,638 C333.167,638 347.727,638 362.287,638 " fill="none" style="stroke: #A80036; stroke-width: 1.0;"/><polygon fill="none" points="375.658,638,369.658,634,363.658,638,369.658,642,375.658,638" style="stroke: #A80036; stroke-width: 1.0;"/><polygon fill="#A80036" points="305.441,638,314.441,642,310.441,638,314.441,634,305.441,638" style="stroke: #A80036; stroke-width: 1.0;"/><line style="stroke: #A80036; stroke-width: 1.0;" x1="310.441" x2="318.441" y1="638" y2="638"/><text fill="#000000" font-family="sans-serif" font-size="13" lengthAdjust="spacingAndGlyphs" textLength="7" x="313.7706" y="633.5382">*</text><text fill="#000000" font-family="sans-serif" font-size="13" lengthAdjust="spacingAndGlyphs" textLength="8" x="359.6077" y="633.6752">1</text><path d="M689.37,638 C718.203,638 748.564,638 778.417,638 " fill="none" style="stroke: #A80036; stroke-width: 1.0;"/><polygon fill="#A80036" points="791.63,638,782.63,634,786.63,638,782.63,642,791.63,638" style="stroke: #A80036; stroke-width: 1.0;"/><line style="stroke: #A80036; stroke-width: 1.0;" x1="786.63" x2="778.63" y1="638" y2="638"/><polygon fill="none" points="676.303,638,682.303,642,688.303,638,682.303,634,676.303,638" style="stroke: #A80036; stroke-width: 1.0;"/><text fill="#000000" font-family="sans-serif" font-size="13" lengthAdjust="spacingAndGlyphs" textLength="77" x="694.75" y="630.0669">xConverters</text><text fill="#000000" font-family="sans-serif" font-size="13" lengthAdjust="spacingAndGlyphs" textLength="8" x="684.7278" y="633.5941">1</text><text fill="#000000" font-family="sans-serif" font-size="13" lengthAdjust="spacingAndGlyphs" textLength="7" x="776.4741" y="633.756">*</text><path d="M689.447,658.72 C690.887,658.82 692.322,658.91 693.75,659 C721.157,660.71 750,660.76 778.456,659.78 " fill="none" style="stroke: #A80036; stroke-width: 1.0;"/><polygon fill="#A80036" points="791.496,659.26,782.3436,655.6223,786.5,659.4595,782.6628,663.6159,791.496,659.26" style="stroke: #A80036; stroke-width: 1.0;"/><line style="stroke: #A80036; stroke-width: 1.0;" x1="786.5" x2="778.5065" y1="659.4595" y2="659.785"/><polygon fill="none" points="676.353,657.74,682.038,662.1763,688.3196,658.6349,682.6346,654.1986,676.353,657.74" style="stroke: #A80036; stroke-width: 1.0;"/><text fill="#000000" font-family="sans-serif" font-size="13" lengthAdjust="spacingAndGlyphs" textLength="77" x="694.75" y="654.0669">yConverters</text><text fill="#000000" font-family="sans-serif" font-size="13" lengthAdjust="spacingAndGlyphs" textLength="8" x="684.7805" y="654.4137">1</text><text fill="#000000" font-family="sans-serif" font-size="13" lengthAdjust="spacingAndGlyphs" textLength="7" x="776.958" y="655.7406">*</text><path d="M396.845,428.42 C408.951,447.97 422.493,469.84 436.129,491.86 " fill="none" style="stroke: #A80036; stroke-width: 1.0;"/><polygon fill="none" points="390.747,431.87,386.169,411.18,402.65,424.5,390.747,431.87" style="stroke: #A80036; stroke-width: 1.0;"/><path d="M984.824,397.93 C922.433,423.3 842.768,457.36 774,492 C741.929,508.15 708.281,526.69 676.479,544.99 " fill="none" style="stroke: #A80036; stroke-width: 1.0;"/><polygon fill="none" points="982.435,391.35,1003.601,390.34,987.679,404.33,982.435,391.35" style="stroke: #A80036; stroke-width: 1.0;"/><path d="M444.365,802.27 C431.514,827.973 419.691,851.617 411.201,868.598 " fill="none" style="stroke: #A80036; stroke-width: 1.0;"/><polygon fill="none" points="438.193,798.962,453.398,784.204,450.715,805.223,438.193,798.962" style="stroke: #A80036; stroke-width: 1.0;"/><path d="M1150.38,424.61 C1166.63,445.48 1183.5,469 1197,492 C1217.82,527.48 1235.56,571.27 1246.66,601.38 " fill="none" style="stroke: #A80036; stroke-width: 1.0;"/><polygon fill="#A80036" points="1251.14,613.78,1251.8465,603.9565,1249.4423,609.077,1244.3218,606.6728,1251.14,613.78" style="stroke: #A80036; stroke-width: 1.0;"/><line style="stroke: #A80036; stroke-width: 1.0;" x1="1249.4423" x2="1246.73" y1="609.077" y2="601.555"/><polygon fill="none" points="1142.22,414.27,1142.8003,421.4577,1149.6583,423.6866,1149.078,416.4989,1142.22,414.27" style="stroke: #A80036; stroke-width: 1.0;"/><path d="M1192.34,398.85 C1236,421.46 1285.06,452.73 1320,492 C1348.24,523.74 1366.03,569.76 1375.72,601.4 " fill="none" style="stroke: #A80036; stroke-width: 1.0;"/><polygon fill="#A80036" points="1379.38,614,1380.7094,604.2413,1377.9846,609.1986,1373.0273,606.4739,1379.38,614" style="stroke: #A80036; stroke-width: 1.0;"/><line style="stroke: #A80036; stroke-width: 1.0;" x1="1377.9846" x2="1375.75" y1="609.1986" y2="601.51"/><polygon fill="none" points="1180.48,392.86,1184.0269,399.1385,1191.1866,398.2792,1187.6397,392.0007,1180.48,392.86" style="stroke: #A80036; stroke-width: 1.0;"/></g></svg>